<svg xmlns="http://www.w3.org/2000/svg" xmlns:xlink="http://www.w3.org/1999/xlink" version="1.1" x="0px" y="0px" viewBox="0 0 90 90" enable-background="new 0 0 90 90" xml:space="preserve"><polygon points="45.224,6.514 56.368,29.097 81.29,32.719 63.258,50.297 67.514,75.117 45.224,63.398 22.933,75.117 27.189,50.297   9.156,32.719 34.077,29.097 "></polygon><polygon points="25.245,8.045 28.402,14.443 35.463,15.469 30.354,20.449 31.56,27.481 25.245,24.162 18.929,27.481 20.136,20.449   15.026,15.469 22.086,14.443 "></polygon><polygon points="65.202,8.045 68.359,14.443 75.42,15.469 70.313,20.449 71.52,27.481 65.202,24.162 58.887,27.481 60.094,20.449   54.982,15.469 62.045,14.443 "></polygon><polygon points="75.96,43.392 79.118,49.791 86.178,50.816 81.068,55.796 82.275,62.829 75.96,59.51 69.646,62.829 70.852,55.796   65.741,50.816 72.803,49.791 "></polygon><polygon points="45.224,66.443 48.382,72.842 55.441,73.869 50.332,78.85 51.539,85.881 45.224,82.563 38.909,85.881 40.115,78.85   35.005,73.869 42.066,72.842 "></polygon><polygon points="14.487,43.392 17.645,49.791 24.705,50.816 19.596,55.796 20.802,62.829 14.487,59.51 8.172,62.829 9.378,55.796   4.269,50.816 11.33,49.791 "></polygon></svg>