<svg xmlns="http://www.w3.org/2000/svg" xmlns:xlink="http://www.w3.org/1999/xlink" version="1.1" x="0px" y="0px" viewBox="0 0 100 125" enable-background="new 0 0 100 100" xml:space="preserve"><path d="M3.12,44.789h93.839c0,0-14.771-29.068-46.959-29.068C17.812,15.721,3.12,44.789,3.12,44.789z"/><rect x="43.128" y="3.557" width="13.744" height="24.329"/><path d="M15.653,62.086c0,1.31-1.061,2.37-2.37,2.37l0,0c-1.309,0-2.37-1.061-2.37-2.37V50.555c0-1.31,1.061-2.37,2.37-2.37l0,0  c1.309,0,2.37,1.061,2.37,2.37V62.086z"/><path d="M15.653,82.941c0,1.311-1.061,2.371-2.369,2.371l0,0c-1.309,0-2.37-1.061-2.37-2.371V71.41c0-1.309,1.061-2.369,2.37-2.369  l0,0c1.309,0,2.369,1.061,2.369,2.369V82.941z"/><path d="M24.636,71.251c0,1.31-1.061,2.37-2.369,2.37l0,0c-1.309,0-2.37-1.061-2.37-2.37V59.72c0-1.31,1.061-2.37,2.37-2.37l0,0  c1.309,0,2.369,1.061,2.369,2.37V71.251z"/><path d="M34.013,62.086c0,1.31-1.061,2.37-2.37,2.37l0,0c-1.309,0-2.37-1.061-2.37-2.37V50.555c0-1.31,1.061-2.37,2.37-2.37l0,0  c1.309,0,2.37,1.061,2.37,2.37V62.086z"/><path d="M34.013,82.941c0,1.311-1.061,2.371-2.369,2.371l0,0c-1.309,0-2.37-1.061-2.37-2.371V71.41c0-1.309,1.061-2.369,2.37-2.369  l0,0c1.309,0,2.369,1.061,2.369,2.369V82.941z"/><path d="M42.997,71.251c0,1.31-1.061,2.37-2.369,2.37l0,0c-1.309,0-2.37-1.061-2.37-2.37V59.72c0-1.31,1.062-2.37,2.37-2.37l0,0  c1.309,0,2.369,1.061,2.369,2.37V71.251z"/><path d="M51.775,62.086c0,1.31-1.062,2.37-2.37,2.37l0,0c-1.309,0-2.37-1.061-2.37-2.37V50.555c0-1.31,1.061-2.37,2.37-2.37l0,0  c1.309,0,2.37,1.061,2.37,2.37V62.086z"/><path d="M51.775,82.941c0,1.311-1.061,2.371-2.37,2.371l0,0c-1.309,0-2.37-1.061-2.37-2.371V71.41c0-1.309,1.061-2.369,2.37-2.369  l0,0c1.309,0,2.37,1.061,2.37,2.369V82.941z"/><path d="M60.759,71.251c0,1.31-1.061,2.37-2.369,2.37l0,0c-1.309,0-2.37-1.061-2.37-2.37V59.72c0-1.31,1.062-2.37,2.37-2.37l0,0  c1.309,0,2.369,1.061,2.369,2.37V71.251z"/><path d="M69.873,62.086c0,1.31-1.061,2.37-2.369,2.37l0,0c-1.309,0-2.369-1.061-2.369-2.37V50.555c0-1.31,1.061-2.37,2.369-2.37l0,0  c1.309,0,2.369,1.061,2.369,2.37V62.086z"/><path d="M69.873,82.941c0,1.311-1.061,2.371-2.369,2.371l0,0c-1.309,0-2.369-1.061-2.369-2.371V71.41  c0-1.309,1.061-2.369,2.369-2.369l0,0c1.309,0,2.369,1.061,2.369,2.369V82.941z"/><path d="M78.857,71.251c0,1.31-1.061,2.37-2.369,2.37l0,0c-1.309,0-2.37-1.061-2.37-2.37V59.72c0-1.31,1.062-2.37,2.37-2.37l0,0  c1.309,0,2.369,1.061,2.369,2.37V71.251z"/><path d="M87.732,62.086c0,1.311-1.061,2.371-2.369,2.371l0,0c-1.309,0-2.369-1.061-2.369-2.371V50.555c0-1.31,1.061-2.37,2.369-2.37  l0,0c1.309,0,2.369,1.061,2.369,2.37V62.086z"/><path d="M87.732,82.941c0,1.311-1.061,2.371-2.369,2.371l0,0c-1.309,0-2.369-1.061-2.369-2.371V71.41  c0-1.309,1.061-2.369,2.369-2.369l0,0c1.309,0,2.369,1.061,2.369,2.369V82.941z"/><text x="0" y="115" fill="#000000" font-size="5px" font-weight="bold" font-family="'Helvetica Neue', Helvetica, Arial-Unicode, Arial, Sans-serif">Created by Ayesha Rana</text><text x="0" y="120" fill="#000000" font-size="5px" font-weight="bold" font-family="'Helvetica Neue', Helvetica, Arial-Unicode, Arial, Sans-serif">from the Noun Project</text></svg>