<?xml version="1.0" encoding="UTF-8" standalone="no"?>
<svg width="20px" height="20px" viewBox="0 0 20 20" version="1.1" xmlns="http://www.w3.org/2000/svg" xmlns:xlink="http://www.w3.org/1999/xlink" xmlns:sketch="http://www.bohemiancoding.com/sketch/ns">
    <!-- Generator: Sketch 3.2.2 (9983) - http://www.bohemiancoding.com/sketch -->
    <title>call</title>
    <desc>Created with Sketch.</desc>
    <defs></defs>
    <g id="Page-1" stroke="none" stroke-width="1" fill="none" fill-rule="evenodd" sketch:type="MSPage">
        <g id="call" sketch:type="MSLayerGroup" fill="#000000">
            <path d="M18,13.01 C16.828,13.01 15.68,12.827 14.592,12.468 C14.061,12.285 13.458,12.426 13.109,12.782 L10.952,14.411 C8.477,13.09 6.893,11.507 5.59,9.05 L7.175,6.944 C7.574,6.545 7.717,5.961 7.546,5.414 C7.184,4.319 7,3.17 7,2 C7,1.173 6.327,0.5 5.5,0.5 L2,0.5 C1.173,0.5 0.5,1.173 0.5,2 C0.5,11.649 8.351,19.5 18,19.5 C18.827,19.5 19.5,18.827 19.5,18 L19.5,14.51 C19.5,13.683 18.827,13.01 18,13.01 L18,13.01 Z" id="Shape" sketch:type="MSShapeGroup"></path>
        </g>
    </g>
</svg>