<?xml version="1.0" encoding="UTF-8" standalone="no"?>
<svg width="89px" height="100px" viewBox="0 0 89 100" version="1.1" xmlns="http://www.w3.org/2000/svg" xmlns:xlink="http://www.w3.org/1999/xlink" xmlns:sketch="http://www.bohemiancoding.com/sketch/ns">
    <!-- Generator: Sketch 3.2.2 (9983) - http://www.bohemiancoding.com/sketch -->
    <title>noun_3056_cc</title>
    <desc>Created with Sketch.</desc>
    <defs></defs>
    <g id="Page-1" stroke="none" stroke-width="1" fill="none" fill-rule="evenodd" sketch:type="MSPage">
        <g id="noun_3056_cc" sketch:type="MSLayerGroup" fill="#000000">
            <path d="M29.131,56.039 C29.131,64.344 35.857,71.068 44.16,71.068 C50.322,71.068 55.62,67.358 57.939,62.051 L54.679,62.051 C52.19,62.051 50.171,60.03 50.171,57.542 L50.171,54.535 C50.171,52.046 52.19,50.027 54.679,50.027 L57.939,50.027 C55.62,44.72 50.322,41.009 44.16,41.009 C35.856,41.011 29.131,47.736 29.131,56.039 L29.131,56.039 Z M59.189,53.034 C57.526,53.034 56.182,54.377 56.182,56.039 C56.182,57.702 57.526,59.047 59.189,59.047 L62.195,59.047 C63.857,59.047 65.201,57.702 65.201,56.039 C65.201,54.377 63.857,53.034 62.195,53.034 L59.189,53.034 L59.189,53.034 Z M9.217,0.057 C4.238,0.057 0.2,4.096 0.2,9.075 L0.2,90.982 C0.2,95.961 4.239,100.001 9.217,100.001 L79.102,100.001 C84.08,100.001 88.119,95.962 88.119,90.982 L88.119,9.074 C88.119,4.095 84.08,0.056 79.102,0.056 L9.217,0.056 L9.217,0.057 Z M58.062,6.069 L79.103,6.069 C80.766,6.069 82.109,7.412 82.109,9.074 L82.109,15.085 C82.109,16.748 80.766,18.091 79.103,18.091 L58.062,18.091 C56.399,18.091 55.056,16.748 55.056,15.085 L55.056,9.074 C55.056,7.412 56.398,6.069 58.062,6.069 L58.062,6.069 Z M20.113,56.039 C20.113,42.758 30.878,31.993 44.16,31.993 C57.442,31.993 68.206,42.758 68.206,56.039 C68.206,69.322 57.442,80.086 44.16,80.086 C30.878,80.086 20.113,69.322 20.113,56.039 L20.113,56.039 Z" id="Shape" sketch:type="MSShapeGroup"></path>
        </g>
    </g>
</svg>