<?xml version="1.0" encoding="UTF-8" standalone="no"?>
<svg width="69px" height="87px" viewBox="0 0 69 87" version="1.1" xmlns="http://www.w3.org/2000/svg" xmlns:xlink="http://www.w3.org/1999/xlink" xmlns:sketch="http://www.bohemiancoding.com/sketch/ns">
    <!-- Generator: Sketch 3.2.2 (9983) - http://www.bohemiancoding.com/sketch -->
    <title>Shape</title>
    <desc>Created with Sketch.</desc>
    <defs></defs>
    <g id="Page-1" stroke="none" stroke-width="1" fill="none" fill-rule="evenodd" sketch:type="MSPage">
        <path d="M34.2994186,86.8173913 C34.2994186,86.8173913 0,69.0443614 0,33.9720227 C0,15.2100295 15.3566119,0 34.2994186,0 C53.2422253,0 68.5988372,15.2100295 68.5988372,33.9720227 C68.5988372,69.0443614 34.2994186,86.8173913 34.2994186,86.8173913 L34.2994186,86.8173913 Z M34.2994186,3.77466919 C17.4888924,3.77466919 3.81104651,17.3219569 3.81104651,33.9720227 C3.81104651,61.8253066 27.5576773,78.326273 34.3051352,82.4519864 C41.0583096,78.343259 64.7877907,61.9140113 64.7877907,33.9720227 C64.7877907,17.3219569 51.1099448,3.77466919 34.2994186,3.77466919 L34.2994186,3.77466919 Z M34.2994186,50.958034 C24.8270625,50.958034 17.1497093,43.3539629 17.1497093,33.9720227 C17.1497093,24.5900824 24.8270625,16.9860113 34.2994186,16.9860113 C43.7717747,16.9860113 51.4491279,24.5900824 51.4491279,33.9720227 C51.4491279,43.3539629 43.7717747,50.958034 34.2994186,50.958034 L34.2994186,50.958034 Z M34.2994186,20.7606805 C26.9326657,20.7606805 20.9607558,26.6755871 20.9607558,33.9720227 C20.9607558,41.2684582 26.9326657,47.1833648 34.2994186,47.1833648 C41.6661715,47.1833648 47.6380814,41.2684582 47.6380814,33.9720227 C47.6380814,26.6755871 41.6661715,20.7606805 34.2994186,20.7606805 L34.2994186,20.7606805 Z" id="Shape" fill="#FFFFFF" sketch:type="MSShapeGroup"></path>
    </g>
</svg>