<?xml version="1.0" encoding="UTF-8" standalone="no"?>
<svg width="100px" height="84px" viewBox="0 0 100 84" version="1.1" xmlns="http://www.w3.org/2000/svg" xmlns:xlink="http://www.w3.org/1999/xlink" xmlns:sketch="http://www.bohemiancoding.com/sketch/ns">
    <!-- Generator: Sketch 3.2.2 (9983) - http://www.bohemiancoding.com/sketch -->
    <title>noun_72</title>
    <desc>Created with Sketch.</desc>
    <defs></defs>
    <g id="Page-1" stroke="none" stroke-width="1" fill="none" fill-rule="evenodd" sketch:type="MSPage">
        <g id="noun_72" sketch:type="MSLayerGroup" transform="translate(-1.000000, 0.000000)" fill="#000000">
            <path d="M91.925,28.696 L83.728,7.529 C82.195,3.477 78.845,0.029 72.505,0 L60.945,0 L41.188,0 L29.427,0 C23.116,0.029 19.766,3.477 18.205,7.529 L10.006,28.696 C6.751,29.116 0.99,32.941 1,40.187 L1,67.138 L8.999,67.138 L8.999,75.741 C8.979,86.347 23.988,86.221 23.984,75.741 L23.984,67.138 L51,67.138 L77.948,67.138 L77.948,75.741 C77.981,86.221 92.99,86.347 93,75.741 L93,67.138 L101,67.138 L101,40.187 C100.975,32.941 95.21,29.116 91.925,28.696 L91.925,28.696 Z M16.727,50.874 C12.893,50.885 9.789,47.687 9.805,43.754 C9.789,39.794 12.893,36.593 16.727,36.626 C20.549,36.593 23.653,39.794 23.648,43.754 C23.653,47.687 20.548,50.884 16.727,50.874 L16.727,50.874 Z M51,28.497 L50.933,28.497 L18.541,28.497 L24.723,11.829 C25.469,9.463 26.627,7.77 29.362,7.729 L50.933,7.729 L51,7.729 L72.64,7.729 C75.333,7.77 76.494,9.462 77.276,11.829 L83.459,28.497 L51,28.497 L51,28.497 Z M85.274,50.874 C81.413,50.885 78.307,47.687 78.286,43.754 C78.307,39.794 81.413,36.593 85.274,36.626 C89.069,36.593 92.172,39.794 92.196,43.754 C92.172,47.687 89.069,50.884 85.274,50.874 L85.274,50.874 Z" id="Shape" sketch:type="MSShapeGroup"></path>
        </g>
    </g>
</svg>