<?xml version="1.0" encoding="UTF-8" standalone="no"?>
<svg width="73px" height="80px" viewBox="0 0 73 80" version="1.1" xmlns="http://www.w3.org/2000/svg" xmlns:xlink="http://www.w3.org/1999/xlink" xmlns:sketch="http://www.bohemiancoding.com/sketch/ns">
    <!-- Generator: Sketch 3.2.2 (9983) - http://www.bohemiancoding.com/sketch -->
    <title>noun_17820_cc</title>
    <desc>Created with Sketch.</desc>
    <defs></defs>
    <g id="Page-1" stroke="none" stroke-width="1" fill="none" fill-rule="evenodd" sketch:type="MSPage">
        <g id="noun_17820_cc" sketch:type="MSLayerGroup" transform="translate(-1.000000, 0.000000)" fill="#000000">
            <path d="M50.863,68.937 C50.84,72.07 50.371,72.613 47.254,72.885 C46.174,72.98 45.124,73.167 43.949,73.495 C45.493,73.952 46.373,74.893 46.804,76.314 C47.32,78.01 46.904,79.035 45.15,79.414 C41.262,80.255 37.348,80.188 33.482,79.229 C32.158,78.901 31.693,77.889 31.681,76.541 C31.658,73.935 31.392,73.705 28.817,73.687 C27.688,73.679 26.557,73.711 25.427,73.732 C24.445,73.751 24.188,74.19 24.681,75.048 C24.827,75.303 25.008,75.543 25.127,75.811 C25.692,77.08 25.209,78.247 23.842,78.488 C20.445,79.087 17.011,79.274 13.591,78.691 C12.17,78.449 11.28,77.029 11.45,75.598 C11.468,75.452 11.521,75.312 11.548,75.167 C12.077,72.26 11.204,71.524 8.261,72.442 C7.231,72.762 6.255,73.244 5.17,73.397 C2.442,73.784 0.556,71.879 1.01,69.202 C1.205,68.049 1.931,67.437 2.976,67.043 C5.139,66.225 7.22,65.247 9.089,63.849 C9.802,63.317 9.978,62.749 9.93,61.85 C9.673,57.063 10.277,52.54 14.035,48.987 C17.416,45.791 19.407,41.5 22.458,38.037 C24.536,35.678 26.588,33.277 29.336,31.652 C32.091,30.023 33.665,27.609 34.388,24.547 C34.544,23.886 34.329,23.372 33.989,22.896 C33.391,22.056 32.743,21.252 32.101,20.447 C30.983,19.043 31.027,17.125 32.149,15.711 C34.276,13.032 36.82,10.669 38.276,7.477 C38.692,6.567 39.566,5.889 40.486,5.606 C42.571,4.962 44.069,3.42 45.885,2.389 C52.472,-1.355 58.323,-0.431 63.133,4.604 C64.25,5.774 65.253,7.011 66.794,7.724 C68.229,8.387 68.844,9.846 69.302,11.238 C70.47,14.776 71.462,18.352 73.459,21.583 C74.509,23.282 73.974,24.686 72.323,25.931 C71.639,26.447 71.319,26.981 71.38,27.906 C71.502,29.773 71.183,31.637 70.764,33.448 C70.372,35.146 69.59,35.21 68.155,34.278 C65.691,32.676 65.153,30.174 64.616,27.61 C64.502,27.065 64.645,26.259 63.958,26.119 C63.393,26.002 63.153,26.741 62.787,27.116 C61.011,28.931 61.116,31.44 60.42,33.653 C60.368,33.818 60.434,34.056 60.519,34.223 C61.909,36.974 61.816,39.899 61.126,42.729 C60.118,46.86 60.904,50.936 61.023,55.04 C61.154,59.54 61.748,64.047 60.747,68.535 C60.323,70.434 61.286,71.838 63.61,72.724 C65.071,73.282 65.937,74.339 66.546,75.656 C67.227,77.124 66.812,78.31 65.278,78.637 C61.752,79.393 58.162,79.515 54.624,78.721 C52.995,78.357 51.494,75.826 51.808,73.898 C52.106,72.064 51.507,70.531 50.853,68.949 C50.408,66.091 50.656,63.188 50.311,60.329 C49.981,57.593 49.931,57.6 47.785,59.168 C47.51,59.37 47.202,59.528 46.926,59.728 C44.87,61.21 43.431,63.257 41.619,65.221 C42.664,65.41 43.452,65.483 44.196,65.7 C46.596,66.4 49.283,66.538 50.863,68.937 L50.863,68.937 Z" id="Shape" sketch:type="MSShapeGroup"></path>
        </g>
    </g>
</svg>