<?xml version="1.0" encoding="UTF-8" standalone="no"?>
<svg width="85px" height="94px" viewBox="0 0 85 94" version="1.1" xmlns="http://www.w3.org/2000/svg" xmlns:xlink="http://www.w3.org/1999/xlink" xmlns:sketch="http://www.bohemiancoding.com/sketch/ns">
    <!-- Generator: Sketch 3.2.2 (9983) - http://www.bohemiancoding.com/sketch -->
    <title>Shape</title>
    <desc>Created with Sketch.</desc>
    <defs></defs>
    <g id="Page-1" stroke="none" stroke-width="1" fill="none" fill-rule="evenodd" sketch:type="MSPage">
        <g id="05.Tag" sketch:type="MSLayerGroup" transform="translate(-2.000000, 0.000000)" fill="#FFFFFF">
            <path d="M86.1947442,46.5402174 L40.0726047,93.1233478 C40.0078605,93.2214348 39.9653721,93.3317826 39.8803953,93.4176087 C39.481814,93.8181304 38.9557674,94.004087 38.4337674,93.9918261 C37.9117674,94.004087 37.3857209,93.8181304 36.9871395,93.4176087 C36.9021628,93.3317826 36.8616977,93.2214348 36.7949302,93.1233478 L2.88313953,58.8726087 C2.78602326,58.8072174 2.6787907,58.7643043 2.5917907,58.6784783 C2.1932093,58.275913 2.01313953,57.7446087 2.02325581,57.2173913 C2.01111628,56.6901739 2.1932093,56.1588696 2.5917907,55.7563043 C2.6787907,55.6704783 2.78602326,55.6296087 2.88313953,55.5621739 L49.0052791,8.98108696 C49.3755349,8.50086957 49.9258605,8.17391304 50.5733023,8.17391304 L50.6157907,8.17391304 L50.6279302,8.17391304 L58.7796279,8.17391304 C59.0487209,5.1046087 60.2889767,2.41130435 62.1584651,0.647782609 L62.1908372,0.684565217 C62.5873953,0.261565217 63.1276047,0 63.7244651,0 C64.9222326,0 65.8933953,1.04626087 65.8933953,2.33569565 C65.8933953,3.102 65.5292093,3.74773913 65.0011395,4.17278261 C64.032,5.076 63.3420698,6.50030435 63.1114186,8.17391304 L72.7724651,8.17391304 L72.7886512,8.17391304 L72.8291163,8.17391304 C73.4765581,8.17391304 74.0309302,8.50086957 74.3971395,8.98108696 L86.1927209,20.8945652 C86.6661628,21.2685217 86.991907,21.8263913 86.991907,22.4803043 L86.991907,22.5232174 L86.991907,22.5354783 L86.991907,44.9013478 L86.991907,44.9156522 L86.991907,44.9565217 C86.991907,45.6104348 86.668186,46.1683043 86.1947442,46.5402174 L86.1947442,46.5402174 Z M65.258093,32.0131304 C64.8676047,32.434087 64.3253721,32.6956522 63.7244651,32.6956522 C62.5266977,32.6956522 61.5595814,31.6493913 61.5595814,30.3599565 C61.5595814,29.5936522 61.9237674,28.947913 62.4518372,28.5208261 C62.9536047,28.0528696 63.3643256,27.4234783 63.700186,26.7164348 C61.9703023,27.1823478 60.6895814,28.759913 60.6895814,30.6501304 C60.6895814,32.9061304 62.5024186,34.737087 64.736093,34.737087 C66.9717907,34.737087 68.7826047,32.9061304 68.7826047,30.6501304 C68.7826047,29.6835652 68.4386512,28.8089565 67.8822558,28.1080435 C66.6379535,31.2693043 65.258093,32.0131304 65.258093,32.0131304 L65.258093,32.0131304 Z M82.9453953,23.2568261 L72.0582558,12.2608696 L63.5342791,12.2608696 C63.8863256,13.1681739 64.3921395,13.9406087 65.0011395,14.5086957 L65.0011395,14.5086957 C65.084093,14.5761304 65.1872791,14.617 65.258093,14.6966957 L65.2945116,14.659913 C67.4007209,16.6482174 68.7846279,19.7849565 68.7846279,23.3528696 C68.7846279,23.4386957 68.7643953,23.5143043 68.7603488,23.598087 C71.182186,25.0101304 72.8311395,27.6237391 72.8311395,30.6521739 C72.8311395,35.1662174 69.2074884,38.826087 64.7381163,38.826087 C60.2687442,38.826087 56.645093,35.1662174 56.645093,30.6521739 C56.645093,26.2648261 60.0745116,22.7132609 64.3739302,22.5150435 C64.1918372,20.7004348 63.4816744,19.1473913 62.4538605,18.1869565 C62.370907,18.1195217 62.2677209,18.0786522 62.1928605,17.9989565 L62.1604884,18.0357391 C60.655186,16.6155217 59.5444186,14.5924783 59.0183721,12.2608696 L51.3441628,12.2608696 L6.83253488,57.2173913 L38.4337674,89.1344783 L82.9453953,44.1779565 L82.9453953,23.2568261 L82.9453953,23.2568261 Z M24.8496279,53.7128261 C25.6225116,52.9342609 26.8728837,52.9342609 27.6437442,53.7128261 L41.9056744,68.1173043 C42.6765349,68.8958696 42.6765349,70.1587391 41.9056744,70.9393478 C41.134814,71.717913 39.8824186,71.717913 39.1115581,70.9393478 L24.8496279,56.5348696 C24.0787674,55.7563043 24.0787674,54.4934348 24.8496279,53.7128261 L24.8496279,53.7128261 Z M32.9426512,45.538913 C33.7155349,44.7603478 34.965907,44.7603478 35.7367674,45.538913 L49.9966744,59.9433913 C50.7675349,60.7219565 50.7675349,61.9848261 49.9966744,62.7654348 C49.225814,63.544 47.9734186,63.544 47.2025581,62.7654348 L32.9426512,48.3609565 C32.1717907,47.5823913 32.1717907,46.3195217 32.9426512,45.538913 L32.9426512,45.538913 Z" id="Shape" sketch:type="MSShapeGroup"></path>
        </g>
    </g>
</svg>