<?xml version="1.0" encoding="UTF-8" standalone="no"?>
<svg width="97px" height="97px" viewBox="0 0 97 97" version="1.1" xmlns="http://www.w3.org/2000/svg" xmlns:xlink="http://www.w3.org/1999/xlink" xmlns:sketch="http://www.bohemiancoding.com/sketch/ns">
    <!-- Generator: Sketch 3.2.2 (9983) - http://www.bohemiancoding.com/sketch -->
    <title>noun_5103_cc</title>
    <desc>Created with Sketch.</desc>
    <defs></defs>
    <g id="Page-1" stroke="none" stroke-width="1" fill="none" fill-rule="evenodd" sketch:type="MSPage">
        <g id="noun_5103_cc" sketch:type="MSLayerGroup" fill="#000000">
            <path d="M91.97,27.511 C83.837,10.811 67.249,0.436 48.679,0.436 C41.361,0.436 34.291,2.073 27.666,5.302 C3.828,16.918 -6.112,45.782 5.507,69.643 C13.638,86.344 30.225,96.718 48.796,96.718 C56.114,96.718 63.185,95.08 69.811,91.852 C93.648,80.236 103.589,51.373 91.97,27.511 L91.97,27.511 Z M74.456,19.703 L69.493,34.811 L53.967,36.717 L39.924,26.367 L42.568,15.522 L61.057,11.421 L74.456,19.703 L74.456,19.703 Z M28.98,8 C35.192,4.972 41.82,3.437 48.679,3.437 C51.562,3.437 54.391,3.709 57.144,4.225 L58.862,8.835 L41.409,12.707 L28.629,12.071 L28.2,8.405 C28.461,8.271 28.715,8.129 28.98,8 L28.98,8 Z M37.805,28.532 L51.882,38.907 L49.019,53.636 L30.621,59.727 L21.321,53.575 L24.684,32.57 L37.805,28.532 L37.805,28.532 Z M25.363,9.98 L25.753,13.313 L17.025,23.194 L10.428,24.796 C14.077,18.885 19.116,13.762 25.363,9.98 L25.363,9.98 Z M8.439,28.366 L17.455,26.178 L21.805,31.581 L18.364,53.072 L11.314,56.511 L3.759,51.615 C3.221,43.538 4.877,35.506 8.439,28.366 L8.439,28.366 Z M15.115,78.673 C12.4,75.614 10.065,72.151 8.205,68.33 C6.173,64.157 4.846,59.821 4.174,55.458 L10.416,59.504 L16.382,71.737 L15.115,78.673 L15.115,78.673 Z M48.796,93.718 C36.914,93.718 25.901,89.186 17.679,81.333 L18.957,74.334 L30.595,77.597 L49.564,90.542 L49.858,93.688 C49.504,93.696 49.151,93.718 48.796,93.718 L48.796,93.718 Z M63.434,81.647 L50.849,87.786 L32.822,75.484 L32.211,62.359 L50.148,56.421 L63.433,63.785 L63.433,81.647 L63.434,81.647 Z M77.297,83.507 L66.434,81.143 L66.434,63.725 L78.158,52.9 L93.461,54.187 C92.032,65.493 86.361,76.086 77.297,83.507 L77.297,83.507 Z M78.606,49.927 L72.08,36.547 L77.351,20.504 L84.34,20.87 C86.223,23.309 87.881,25.967 89.273,28.825 C92.781,36.03 94.182,43.719 93.738,51.2 L78.606,49.927 L78.606,49.927 Z" id="Shape" sketch:type="MSShapeGroup"></path>
        </g>
    </g>
</svg>