<?xml version="1.0" encoding="UTF-8" standalone="no"?>
<svg width="72px" height="80px" viewBox="0 0 72 80" version="1.1" xmlns="http://www.w3.org/2000/svg" xmlns:xlink="http://www.w3.org/1999/xlink" xmlns:sketch="http://www.bohemiancoding.com/sketch/ns">
    <!-- Generator: Sketch 3.2.2 (9983) - http://www.bohemiancoding.com/sketch -->
    <title>Shape</title>
    <desc>Created with Sketch.</desc>
    <defs></defs>
    <g id="Page-1" stroke="none" stroke-width="1" fill="none" fill-rule="evenodd" sketch:type="MSPage">
        <g id="45.Settings" sketch:type="MSLayerGroup" fill="#FFFFFF">
            <path d="M54.7916667,36.4166667 L17.2083333,36.4166667 C7.77320833,36.4166667 0.125,28.395375 0.125,18.5 C0.125,8.604625 7.77320833,0.583333333 17.2083333,0.583333333 L54.7916667,0.583333333 C64.2250833,0.583333333 71.875,8.604625 71.875,18.5 C71.875,28.395375 64.2250833,36.4166667 54.7916667,36.4166667 L54.7916667,36.4166667 Z M54.7916667,4.16666667 L17.2083333,4.16666667 C9.66091667,4.16666667 3.54166667,10.5844167 3.54166667,18.5 C3.54166667,26.4155833 9.66091667,32.8333333 17.2083333,32.8333333 L54.7916667,32.8333333 C62.3390833,32.8333333 68.4583333,26.4155833 68.4583333,18.5 C68.4583333,10.5844167 62.3390833,4.16666667 54.7916667,4.16666667 L54.7916667,4.16666667 Z M17.2083333,29.25 C11.548625,29.25 6.95833333,24.4375833 6.95833333,18.5 C6.95833333,12.5642083 11.548625,7.75 17.2083333,7.75 C22.8680417,7.75 27.4583333,12.5642083 27.4583333,18.5 C27.4583333,24.4375833 22.8680417,29.25 17.2083333,29.25 L17.2083333,29.25 Z M17.2083333,11.3333333 C13.434625,11.3333333 10.375,14.5422083 10.375,18.5 C10.375,22.4577917 13.434625,25.6666667 17.2083333,25.6666667 C20.9820417,25.6666667 24.0416667,22.4577917 24.0416667,18.5 C24.0416667,14.5422083 20.9820417,11.3333333 17.2083333,11.3333333 L17.2083333,11.3333333 Z M17.2083333,43.5833333 L54.7916667,43.5833333 C64.2250833,43.5833333 71.875,51.6064167 71.875,61.5 C71.875,71.3935833 64.2250833,79.4166667 54.7916667,79.4166667 L17.2083333,79.4166667 C7.77320833,79.4166667 0.125,71.3935833 0.125,61.5 C0.125,51.6064167 7.77320833,43.5833333 17.2083333,43.5833333 L17.2083333,43.5833333 Z M17.2083333,75.8333333 L54.7916667,75.8333333 C62.3390833,75.8333333 68.4583333,69.4155833 68.4583333,61.5 C68.4583333,53.5844167 62.3390833,47.1666667 54.7916667,47.1666667 L17.2083333,47.1666667 C9.66091667,47.1666667 3.54166667,53.5844167 3.54166667,61.5 C3.54166667,69.4155833 9.66091667,75.8333333 17.2083333,75.8333333 L17.2083333,75.8333333 Z M54.7916667,50.75 C60.451375,50.75 65.0416667,55.5642083 65.0416667,61.5 C65.0416667,67.4357917 60.451375,72.25 54.7916667,72.25 C49.1319583,72.25 44.5416667,67.4357917 44.5416667,61.5 C44.5416667,55.5642083 49.1319583,50.75 54.7916667,50.75 L54.7916667,50.75 Z M54.7916667,68.6666667 C58.565375,68.6666667 61.625,65.4577917 61.625,61.5 C61.625,57.5422083 58.565375,54.3333333 54.7916667,54.3333333 C51.0179583,54.3333333 47.9583333,57.5422083 47.9583333,61.5 C47.9583333,65.4577917 51.0179583,68.6666667 54.7916667,68.6666667 L54.7916667,68.6666667 Z" id="Shape" sketch:type="MSShapeGroup"></path>
        </g>
    </g>
</svg>